<?xml version="1.0" encoding="UTF-8" standalone="no"?>
<svg
   xmlns:dc="http://purl.org/dc/elements/1.1/"
   xmlns:cc="http://creativecommons.org/ns#"
   xmlns:rdf="http://www.w3.org/1999/02/22-rdf-syntax-ns#"
   xmlns:svg="http://www.w3.org/2000/svg"
   xmlns="http://www.w3.org/2000/svg"
   xmlns:sodipodi="http://sodipodi.sourceforge.net/DTD/sodipodi-0.dtd"
   xmlns:inkscape="http://www.inkscape.org/namespaces/inkscape"
   inkscape:version="1.0 (4035a4fb49, 2020-05-01)"
   sodipodi:docname="resource_embed_steel.svg"
   id="svg4642"
   version="1.1"
   viewBox="0 0 512 512">
  <metadata
     id="metadata4648">
    <rdf:RDF>
      <cc:Work
         rdf:about="">
        <dc:format>image/svg+xml</dc:format>
        <dc:type
           rdf:resource="http://purl.org/dc/dcmitype/StillImage" />
      </cc:Work>
    </rdf:RDF>
  </metadata>
  <defs
     id="defs4646" />
  <sodipodi:namedview
     inkscape:current-layer="svg4642"
     inkscape:cy="267.72502"
     inkscape:cx="295.62543"
     inkscape:zoom="1.7111432"
     showgrid="false"
     id="namedview4644"
     inkscape:window-height="480"
     inkscape:window-width="640"
     inkscape:pageshadow="2"
     inkscape:pageopacity="0"
     guidetolerance="10"
     gridtolerance="10"
     objecttolerance="10"
     borderopacity="1"
     bordercolor="#666666"
     pagecolor="#ffffff" />
  <g
     style="display:inline;stroke-width:3.63089"
     id="g4582"
     transform="matrix(7.1310672,0,0,7.1568831,281.15912,403.28027)"
     inkscape:label="Rendered Gears">
    <path
       id="path4578"
       style="fill:#4d2d2b;fill-opacity:1;stroke:#000000;stroke-width:0.599096;stroke-miterlimit:4;stroke-dasharray:none;stroke-opacity:1"
       d="M 4.6209401,-15.671866 2.916118,-14.345 l 0.9239003,2.662001 0.126072,0.148484 1.724733,1.6046573 -1.7626537,2.6071376 -2.1318376,-1.0029286 -0.1845201,-0.0614 -2.814016,0.134121 -0.5964832,2.0763093 2.31208723,1.6144749 0.1890309,0.046574 2.33709637,0.2877967 0.1100378,3.1474178 -2.31145837,0.43954196 -0.1854912,0.058253 L -1.5410747,1.1787856 -0.80102307,3.2118529 2.0158307,3.1624609 2.1956723,3.0886879 4.2524893,1.949596 6.1931986,4.4359834 4.5846597,6.1496778 4.4693685,6.3056808 3.7335814,9.0216123 5.5274104,10.234647 7.7734345,8.5401418 7.8753729,8.3746723 8.8662751,6.2432266 11.896477,7.1182928 11.60534,9.4520059 l -0.0012,0.1944907 1.003418,2.6327184 2.162116,-0.07059 0.817552,-2.6921825 -0.01511,-0.1940661 -0.453575,-2.3092024 2.961913,-1.0703941 1.138077,2.0618331 0.113235,0.1586055 2.359561,1.544018 L 23.395676,8.3805388 22.472424,5.718849 22.345878,5.5705334 20.621441,3.9652207 22.38412,1.3580742 l 2.131838,1.0029307 0.184672,0.061893 2.814041,-0.1341303 0.595808,-2.07661694 -2.311613,-1.61464316 -0.189303,-0.045927 -2.337121,-0.2877877 -0.109717,-3.1480826 2.311459,-0.439542 0.185491,-0.058253 2.193664,-1.7613391 -0.740051,-2.0330674 -2.816828,0.04939 -0.179842,0.07377 -2.056817,1.1390923 -1.94103,-2.485723 1.608564,-1.713704 0.115562,-0.15665 0.735314,-2.715763 -1.793155,-1.212727 -2.246048,1.694515 -0.102091,0.164976 -0.990903,2.131443 -3.030227,-0.875057 0.290841,-2.333057 0.0017,-0.194659 -1.004065,-2.633031 -2.161643,0.07042 -0.81756,2.692163 0.01514,0.194072 0.453078,2.309382 -2.9619124,1.070394 -1.1375796,-2.062013 -0.1132655,-0.158611 z m 7.6525389,10.3493143 a 2.5030822,2.4969215 35.032228 0 1 0.02721,-0.00983 2.5030822,2.4969215 35.032228 0 1 3.205812,1.5009319 2.5030822,2.4969215 35.032228 0 1 -1.494764,3.19965496 2.5030822,2.4969215 35.032228 0 1 -3.205813,-1.50093186 2.5030822,2.4969215 35.032228 0 1 1.467554,-3.1898214 z m -27.762252,-46.3343073 -0.741639,3.619571 0.04018,0.308173 0.754356,2.986047 -4.058993,1.593321 -1.491659,-2.696466 -0.181588,-0.252828 -3.019154,-2.143372 -2.414645,1.784028 1.169858,3.509807 0.188904,0.247101 2.146643,2.212441 -2.712936,3.409559 -2.639542,-1.592876 -0.283321,-0.128932 -3.68405,-0.350188 -1.195271,2.753921 2.767924,2.458965 0.287133,0.119845 2.963697,0.846306 -0.640273,4.311856 -3.079776,-0.06286 -0.309545,0.03013 -3.361263,1.536252 0.343558,2.985532 3.624814,0.749227 0.30836,-0.03934 2.986963,-0.746344 1.603836,4.058812 -2.695316,1.484153 -0.252514,0.180699 -2.138174,3.011665 1.7913,2.417234 3.509382,-1.161063 0.247473,-0.188517 2.209502,-2.139222 3.418522,2.718069 -1.588565,2.633848 -0.127907,0.282942 -0.342118,3.6796618 2.758707,1.2013283 2.454473,-2.7604088 0.119332,-0.286784 0.840668,-2.9594513 4.316946,0.64973 -0.05623,3.0772333 0.03145,0.309785 1.545325,3.3620135 2.9870846,-0.3368357 0.741644,-3.6195558 -0.04016,-0.308182 -0.753896,-2.9861763 4.0583721,-1.59348 1.4916708,2.696499 0.1817625,0.253152 3.0189545,2.1429023 2.4151317,-1.7842383 -1.1701197,-3.509135 -0.1889039,-0.247102 -2.14678007,-2.212892 2.71308387,-3.409076 2.6395677,1.592868 0.2831975,0.128593 3.6840496,0.350186 1.1954568,-2.753408 -2.7679363,-2.459 -0.2871335,-0.119845 -2.9636965,-0.846306 0.6402728,-4.311856 3.0797639,0.06282 0.309669,-0.02979 3.3610346,-1.53694 -0.34355,-2.985496 -3.6248044,-0.74923 -0.308385,0.03935 -2.9868391,0.746685 -1.603886,-4.058794 2.695131,-1.484662 0.2526381,-0.180359 2.1382026,-3.011639 -1.7913167,-2.417264 -3.5095182,1.160727 -0.2468524,0.188675 -2.20997417,2.139393 -3.41854623,-2.718057 1.58860233,-2.633823 0.1277576,-0.283276 0.3421176,-3.679661 -2.75866943,-1.201303 -2.454685,2.759906 -0.119332,0.286783 -0.840183,2.959237 -4.3167706,-0.64925 0.05556,-3.07753 -0.03066,-0.309302 -1.54586,-3.36186 z m 3.048444,20.22024 a 3.3304215,3.3222245 35.032228 0 1 3.8252596,1.147372 3.3304215,3.3222245 35.032228 0 1 -0.690389,4.649845 3.3304215,3.3222245 35.032228 0 1 -4.6549016,-0.70074 3.3304215,3.3222245 35.032228 0 1 0.68988,-4.649699 3.3304215,3.3222245 35.032228 0 1 0.830113,-0.44688 z" />
  </g>
</svg>
